<svg width="14" height="13" viewBox="0 0 14 13" fill="none" xmlns="http://www.w3.org/2000/svg">
<path d="M12.5306 1.9938H5.41715C5.20493 1.3868 4.64343 0.95 3.9833 0.95C3.32316 0.95 2.76167 1.3868 2.54945 1.9938H1.4694C1.18081 1.9938 0.95 2.23612 0.95 2.53106C0.95 2.82599 1.18081 3.06831 1.4694 3.06831H2.54948C2.7617 3.67531 3.32319 4.11211 3.98333 4.11211C4.64346 4.11211 5.20496 3.67531 5.41718 3.06831H12.5306C12.8192 3.06831 13.05 2.82599 13.05 2.53106C13.05 2.23612 12.8192 1.9938 12.5306 1.9938ZM3.9833 3.0376C3.71703 3.0376 3.49715 2.81209 3.49715 2.53106C3.49715 2.25002 3.71703 2.02451 3.9833 2.02451C4.24957 2.02451 4.46945 2.25002 4.46945 2.53106C4.46945 2.81209 4.24957 3.0376 3.9833 3.0376Z" fill="#2469F0" stroke="#2469F0" stroke-width="0.1"/>
<path d="M12.5306 6.16909H11.4505C11.2383 5.56209 10.6767 5.12529 10.0166 5.12529C9.35654 5.12529 8.79504 5.5621 8.58282 6.16909H1.4694C1.18081 6.16909 0.95 6.41142 0.95 6.70635C0.95 7.00128 1.18081 7.24361 1.4694 7.24361H8.58282C8.79504 7.85061 9.35657 8.28741 10.0167 8.28741C10.6768 8.28741 11.2383 7.85061 11.4505 7.24361H12.5306C12.8192 7.24361 13.05 7.00128 13.05 6.70635C13.05 6.41141 12.8192 6.16909 12.5306 6.16909ZM10.0167 7.21289C9.7504 7.21289 9.53052 6.98739 9.53052 6.70635C9.53052 6.42531 9.7504 6.19981 10.0167 6.19981C10.2829 6.19981 10.5028 6.42531 10.5028 6.70635C10.5028 6.98739 10.2829 7.21289 10.0167 7.21289Z" fill="#2469F0" stroke="#2469F0" stroke-width="0.1"/>
<path d="M12.5306 10.3441H7.42828C7.21606 9.73714 6.65457 9.30034 5.99443 9.30034C5.3343 9.30034 4.7728 9.73714 4.56058 10.3441H1.4694C1.18081 10.3441 0.95 10.5865 0.95 10.8814C0.95 11.1763 1.18081 11.4187 1.4694 11.4187H4.56058C4.7728 12.0257 5.3343 12.4625 5.99443 12.4625C6.65457 12.4625 7.21606 12.0257 7.42828 11.4187H12.5306C12.8192 11.4187 13.05 11.1763 13.05 10.8814C13.05 10.5865 12.8192 10.3441 12.5306 10.3441ZM5.99443 11.388C5.72816 11.388 5.50828 11.1625 5.50828 10.8814C5.50828 10.6004 5.72816 10.3749 5.99443 10.3749C6.26071 10.3749 6.48058 10.6004 6.48058 10.8814C6.48058 11.1624 6.2607 11.388 5.99443 11.388Z" fill="#2469F0" stroke="#2469F0" stroke-width="0.1"/>
</svg>
